<?xml version="1.0" encoding="utf-8"?>
<!-- Generator: Adobe Illustrator 22.1.0, SVG Export Plug-In . SVG Version: 6.00 Build 0)  -->
<svg version="1.1" id="Layer_1" xmlns="http://www.w3.org/2000/svg" xmlns:xlink="http://www.w3.org/1999/xlink" x="0px" y="0px"
	 viewBox="0 0 100 99.7" style="enable-background:new 0 0 100 99.7;" xml:space="preserve">
<style type="text/css">
	.st0{fill:#3D3D3D;}
</style>
<g>
	<polygon class="st0" points="80.6,9.8 80.6,19.2 85.1,19.2 85.1,5.3 72.5,5.3 72.5,9.8 	"/>
	<polygon class="st0" points="20,9.8 28.1,9.8 28.1,5.3 15.5,5.3 15.5,19.2 20,19.2 	"/>
	<polygon class="st0" points="20,67.5 20,58.6 15.5,58.6 15.5,72 28.1,72 28.1,67.5 	"/>
	<polygon class="st0" points="80.6,67.5 72.5,67.5 72.5,72 85.1,72 85.1,58.6 80.6,58.6 	"/>
</g>
<g>
	<path class="st0" d="M85.1,82.1C71.5,79,58.9,76.2,65,64.7c18.6-35.1,4.9-53.8-14.7-53.8c-20,0-33.4,19.5-14.7,53.8
		c6.3,11.6-6.8,14.3-20.1,17.4C2,85.2,3,83.5,3,96.4h94.5C97.6,83.5,98.6,85.2,85.1,82.1z"/>
</g>
</svg>
