<?xml version="1.0" encoding="utf-8"?>
<!-- Generator: Adobe Illustrator 22.1.0, SVG Export Plug-In . SVG Version: 6.00 Build 0)  -->
<svg version="1.1" id="Layer_1" xmlns="http://www.w3.org/2000/svg" xmlns:xlink="http://www.w3.org/1999/xlink" x="0px" y="0px"
	 viewBox="0 0 620 775" style="enable-background:new 0 0 620 775;" xml:space="preserve">
<style type="text/css">
	.st0{fill:url(#SVGID_1_);}
	.st1{fill:#2C2A70;}
	.st2{fill:#1A134B;}
	.st3{fill:url(#SVGID_2_);}
	.st4{opacity:0.5;fill:url(#SVGID_3_);}
	.st5{fill:#211B58;}
	.st6{fill:#282567;}
	.st7{fill:url(#SVGID_4_);}
	.st8{fill:#47419A;}
	.st9{fill:url(#SVGID_5_);}
	.st10{fill:url(#SVGID_6_);}
	.st11{fill:url(#SVGID_7_);}
	.st12{fill:#4B4A9F;}
	.st13{fill:#FCD1C6;}
	.st14{fill:#E2B1A6;}
	.st15{fill:#AB8483;}
	.st16{fill:#946E6D;}
	.st17{fill:#F1F6FC;}
	.st18{fill:#C4CBD5;}
	.st19{fill:url(#SVGID_8_);}
	.st20{fill:url(#SVGID_9_);}
	.st21{fill:#732419;}
	.st22{fill:url(#SVGID_10_);}
	.st23{fill:url(#SVGID_11_);}
	.st24{fill:#6DCACE;}
	.st25{fill:url(#SVGID_12_);}
	.st26{fill:#FFFFFF;}
	.st27{opacity:0.51;fill:#47419A;}
	.st28{opacity:0.8;fill:url(#SVGID_13_);}
	.st29{opacity:0.6;}
	.st30{clip-path:url(#SVGID_15_);}
	.st31{fill:#273649;}
	.st32{opacity:0.3;}
	.st33{opacity:0.4;fill:#282567;}
	.st34{opacity:0.4;fill:#6DCACE;}
</style>
<radialGradient id="SVGID_1_" cx="-156.6817" cy="-2029.8254" r="1204.4987" gradientTransform="matrix(1 1.513878e-03 -1.512666e-03 0.9992 -1.7074 1518.6165)" gradientUnits="userSpaceOnUse">
	<stop  offset="0" style="stop-color:#2F2E7A"/>
	<stop  offset="0.31" style="stop-color:#2C2A70"/>
	<stop  offset="1" style="stop-color:#1A134B"/>
</radialGradient>
<polygon class="st0" points="-581.2,-5.8 775.6,-3.7 774.4,787.8 -582.4,785.7 "/>
<g>
	<polygon class="st1" points="212.1,319.7 211.8,477.9 -73.4,654.4 -72.9,319.2 	"/>
	<polygon class="st2" points="69.5,401.7 -72.9,319.2 69.7,237.2 212.1,319.7 	"/>
	
		<linearGradient id="SVGID_2_" gradientUnits="userSpaceOnUse" x1="92.7172" y1="399.386" x2="-184.6414" y2="567.4675" gradientTransform="matrix(1 1.513878e-03 -1.513878e-03 1 0.5922 -0.4022)">
		<stop  offset="0" style="stop-color:#5A64AD"/>
		<stop  offset="0.1833" style="stop-color:#5F7FB6"/>
		<stop  offset="0.3665" style="stop-color:#6399BF"/>
		<stop  offset="0.5432" style="stop-color:#67ADC6"/>
		<stop  offset="0.7114" style="stop-color:#6BBCCA"/>
		<stop  offset="0.8676" style="stop-color:#6DC5CC"/>
		<stop  offset="1" style="stop-color:#6DCACE"/>
	</linearGradient>
	<polygon class="st3" points="69.5,401.7 69.2,593.2 -73.4,654.4 -72.9,319.2 	"/>
</g>
<polygon class="st2" points="774.8,511.5 775.3,147.6 -334.4,786.1 -282.2,786.2 295.9,787 "/>
<radialGradient id="SVGID_3_" cx="138.0439" cy="8668.9883" r="425.8087" fx="414.2736" fy="8344.9355" gradientTransform="matrix(1 1.513878e-03 -7.803302e-04 0.5155 6.3168 -3781.8228)" gradientUnits="userSpaceOnUse">
	<stop  offset="0" style="stop-color:#6DCACE"/>
	<stop  offset="0.1025" style="stop-color:#4CA8B7"/>
	<stop  offset="0.1886" style="stop-color:#2F93A9"/>
	<stop  offset="0.2073" style="stop-color:#2F8BA2"/>
	<stop  offset="0.3086" style="stop-color:#2B6888"/>
	<stop  offset="0.4134" style="stop-color:#264F73"/>
	<stop  offset="0.5203" style="stop-color:#223A64"/>
	<stop  offset="0.63" style="stop-color:#1E2A58"/>
	<stop  offset="0.7435" style="stop-color:#1C1E51"/>
	<stop  offset="0.8633" style="stop-color:#1A154C"/>
	<stop  offset="1" style="stop-color:#1A134B"/>
</radialGradient>
<polygon class="st4" points="774.8,511.5 775.3,147.6 -334.4,786.1 -282.2,786.2 295.9,787 "/>
<polygon class="st2" points="222.1,679.3 102.9,786.7 -129,786.4 192.1,644.9 204.7,648.8 59.3,748.1 69,747.8 204.4,671.7 "/>
<g>
	<g>
		<path class="st5" d="M231.8,656.2c0,0,6.8,0.2,13.4-0.8c6.5-1,24.4-1.1,24.6,4.6c0.1,5.8-8.3,15.6-19.8,19
			c-11.5,3.4-26.8,3.2-34.4,4.8c-7.6,1.6-13.4-4.2-10.9-11.1C207,665.8,231.8,656.2,231.8,656.2z"/>
		<path class="st5" d="M193.4,637.8c0,0-2.5,4.5-1.3,7.1c1.2,2.7,4.5,9.3,15.3,2.4c10.7-6.8,31.3-16.8,31.3-16.8s11.7-7.2,11-15.1
			c-0.7-7.9-11.5-6.3-11.5-6.3L193.4,637.8z"/>
		<path class="st6" d="M261.8,524.4c0,0-4,50.2-13.3,69.8c-9.6,20.1-12.2,57-14.2,64.2c-2.1,7.2-8.4,17.8-18.6,20.4
			c-10.2,2.6-11.8-4.9-11.3-9.5c0.5-4.5,3.3-11.9,3.4-16.7c0-4.8-1-7.1-1.1-9.3c0,0-11.6,4.1-13.3-5.5c0,0,1-2.8,1.1-4.3
			c0.2-1.4-0.8-36.1-1-40.2c-0.3-4.1,2-26.5,5.2-37.5c3.2-10.8,2.2-33.5,2.2-33.5l31.9-5.6L261.8,524.4z"/>
		
			<linearGradient id="SVGID_4_" gradientUnits="userSpaceOnUse" x1="1801.8531" y1="660.2957" x2="1834.177" y2="660.2957" gradientTransform="matrix(-0.9974 -7.171009e-02 -7.171009e-02 0.9974 2069.5984 72.4431)">
			<stop  offset="0" style="stop-color:#5A64AD"/>
			<stop  offset="0.1833" style="stop-color:#5F7FB6"/>
			<stop  offset="0.3665" style="stop-color:#6399BF"/>
			<stop  offset="0.5432" style="stop-color:#67ADC6"/>
			<stop  offset="0.7114" style="stop-color:#6BBCCA"/>
			<stop  offset="0.8676" style="stop-color:#6DC5CC"/>
			<stop  offset="1" style="stop-color:#6DCACE"/>
		</linearGradient>
		<path class="st7" d="M198.7,555.8c3.2-10.8,2.2-33.5,2.2-33.5l2.8-0.5c0.1,3.1,0.7,23-2.2,33c-3.2,11-5.3,33.3-5.1,37.4
			c0.3,4.1,1.3,38.7,1.1,40.2c-0.2,1.4-1.1,4.3-1.1,4.3c1.7,9.6,13.3,5.5,13.3,5.5c0.2,2.2,1.2,4.4,1.1,9.2c0,4.9-2.9,12.2-3.4,16.7
			c-0.5,4.5,1.1,12,11.3,9.4c0.3-0.1,0.6-0.2,0.9-0.3c-1.3,0.6-2.6,1.2-4,1.5c-10.2,2.6-11.8-4.9-11.3-9.5
			c0.5-4.5,3.3-11.9,3.4-16.8c0-4.8-1-7.5-1.1-9.7c0,0-11.6,4.5-13.3-5.1c0,0,1-2.8,1.1-4.3c0.2-1.4-0.8-36.1-1-40.2
			C193.2,589.1,195.4,566.8,198.7,555.8z"/>
		<path class="st5" d="M210.3,525.6c0,0,0.1,7.8,3.2,14.2c0,0-0.1,26.7,2.5,40.3c0,0-4.2,27.8-6.9,36.7c-2.7,9-2.4,26.4-2.4,26.4
			s-1.3,0.6-3.2,0.7c-1.9,0.1-1.9-34.3,1-40.4c2.9-6.1,5.1-32.5,4-40.4c-1-7.8-0.6-30.3-2-34.1c-1.4-3.9,1.8-6,1.8-6L210.3,525.6z"
			/>
		<path class="st5" d="M236.5,353.3c0,0,8.9,6.4,8.5,17.7l-6.6-1.3C238.4,369.7,240.3,357.1,236.5,353.3z"/>
		<path class="st5" d="M233.6,535.8c-21.2,1.3-32.6-8.3-32.6-8.3c0-3.1-0.1-5.2-0.1-5.2l31.9-5.6l29.1,7.7c0,0-0.8,9.8-2.5,22.5
			c-5.2,0.8-10.4-12.6-10.4-12.6l-14.5,1.4C234.5,535.6,254.8,534.5,233.6,535.8z"/>
		<path class="st8" d="M257.8,525.3c0,0-46,21.3-68.1-15.8c-0.6-1-0.9-2.3-0.9-3.7l0.3-8.7c0-1.1-0.1-2.2-0.4-3.2l0,0
			c-0.7-2.2-0.8-4.6-0.4-6.9c1.8-9.7,6.6-35.7,7.7-42.9c1.4-8.7-2.9-43-10.2-57.5c-7.2-14.2,11.7-46.6,11.7-46.6s4.6-7.5,13.4-5.1
			c0,0-8.5,6.1-3.9,12.4c4.7,6.3,18.6,11.2,18.6,11.2s25.9,13.1,34.9,29.6c0,0,3.1,8.7,3.5,19.8c0.4,11.3-0.5,38.7,0,42.5
			c0.5,3.8,2.2,30.3,2.1,31.5C266.1,483.1,257.8,525.3,257.8,525.3z"/>
		<g>
			
				<linearGradient id="SVGID_5_" gradientUnits="userSpaceOnUse" x1="1835.1082" y1="397.4707" x2="1839.5239" y2="397.4707" gradientTransform="matrix(-0.9974 -7.171009e-02 -7.171009e-02 0.9974 2069.5984 72.4431)">
				<stop  offset="0" style="stop-color:#5A64AD"/>
				<stop  offset="0.1833" style="stop-color:#5F7FB6"/>
				<stop  offset="0.3665" style="stop-color:#6399BF"/>
				<stop  offset="0.5432" style="stop-color:#67ADC6"/>
				<stop  offset="0.7114" style="stop-color:#6BBCCA"/>
				<stop  offset="0.8676" style="stop-color:#6DC5CC"/>
				<stop  offset="1" style="stop-color:#6DCACE"/>
			</linearGradient>
			<path class="st9" d="M206.8,339.6c-0.7-1.8-0.5-3.5,0.2-5c1.2-0.1,2.5,0,4,0.4C210.9,334.9,208.3,336.8,206.8,339.6z"/>
			<path class="st6" d="M243.9,529.7c0,0-27.1-75.3-25.8-102.3c1.2-26,39.1,52.6,39.1,52.6l0.6,45.3
				C257.8,525.3,249.2,528.9,243.9,529.7z"/>
			
				<linearGradient id="SVGID_6_" gradientUnits="userSpaceOnUse" x1="1769.4591" y1="561.6877" x2="1846.8438" y2="561.6877" gradientTransform="matrix(-0.9974 -7.171009e-02 -7.171009e-02 0.9974 2069.5984 72.4431)">
				<stop  offset="0" style="stop-color:#5A64AD"/>
				<stop  offset="0.1833" style="stop-color:#5F7FB6"/>
				<stop  offset="0.3665" style="stop-color:#6399BF"/>
				<stop  offset="0.5432" style="stop-color:#67ADC6"/>
				<stop  offset="0.7114" style="stop-color:#6BBCCA"/>
				<stop  offset="0.8676" style="stop-color:#6DC5CC"/>
				<stop  offset="1" style="stop-color:#6DCACE"/>
			</linearGradient>
			<path class="st10" d="M189.5,486.5c0.3,1,0.5,2.1,0.4,3.2l-0.3,8.6c-0.1,1.3,0.2,2.6,0.9,3.6c22,36.7,67.8,15.6,67.8,15.6
				s5.9-30.2,7.8-39.9c0.1,2.3,0.2,4,0.2,4.3c-0.1,1.3-8.4,43.4-8.4,43.4s-46,21.3-68.1-15.8c-0.6-1-0.9-2.3-0.9-3.7l0.3-8.7
				c0-1.1-0.1-2.2-0.4-3.2c-0.7-2.2-0.8-4.6-0.4-6.9c0.2-1,0.4-2.2,0.7-3.6C189.1,484.5,189.2,485.5,189.5,486.5z"/>
			
				<linearGradient id="SVGID_7_" gradientUnits="userSpaceOnUse" x1="1841.8882" y1="467.2674" x2="1858.6909" y2="467.2674" gradientTransform="matrix(-0.9974 -7.171009e-02 -7.171009e-02 0.9974 2069.5984 72.4431)">
				<stop  offset="0" style="stop-color:#5A64AD"/>
				<stop  offset="0.1833" style="stop-color:#5F7FB6"/>
				<stop  offset="0.3665" style="stop-color:#6399BF"/>
				<stop  offset="0.5432" style="stop-color:#67ADC6"/>
				<stop  offset="0.7114" style="stop-color:#6BBCCA"/>
				<stop  offset="0.8676" style="stop-color:#6DC5CC"/>
				<stop  offset="1" style="stop-color:#6DCACE"/>
			</linearGradient>
			<path class="st11" d="M186.6,380.2c7.3,14.4,11.5,48.3,10.2,56.9c-0.1,0.8-0.3,1.8-0.5,3.1c0.1-12.4-3.9-40.7-10.4-53.6
				c-2-4-1.9-9.5-0.8-15.3C184.9,374.7,185.3,377.8,186.6,380.2z"/>
		</g>
		<path class="st12" d="M257.7,439.9c-1-6-1.6-12-1.7-18.1c-0.2-10.4-3.2-27.5-21.4-24.2c-25.8,4.8-14.8,42-11.9,48.6
			c2.9,6.6,14.5,36.7,15.1,38.4c0.6,1.6,19.1,39.6,25.7,48.8c0.6,0.8,1.7,0.9,2.4,0.2c2.6-2.5,8.5-8.4,9.2-12
			c0.9-4.6-3.1-21.2-3.1-21.2s-10.7-40.9-11.5-42.7C259.8,456.3,259.3,449.7,257.7,439.9z"/>
		<path class="st13" d="M236,354.1c0,0,2-4.7,6.7-5.3c4.7-0.6,7.3-1.9,7.8-3.7c0.5-1.8,0.5-3.9,1.6-6.5c1.1-2.6,2-9,2-9.1
			s3.5-1.3,3.7-2.9c0.2-1.6-1.7-7.1-1.5-7.5c0.2-0.4,2-3.9,1.8-6.5c-0.3-2.6-0.7-6.4-2.1-9.6c-1.4-3.2-11.3-22.5-36.6-12.1
			c-25.8,10.6-6.2,32-8.8,46.3c0,0-2.3,3.1,1.9,8.1C216.5,350.4,228.9,351.3,236,354.1z"/>
		<path class="st14" d="M212.3,345.3c-4.2-5-1.9-8.1-1.9-8.1c0.4-2,0.3-4.1,0-6.4l10.2,1.8c0,0,14.9-13.7,13.9-6.5
			c-1,7.3,2.6,8.5,2.6,8.5l-3.1,4c-0.8,1-0.3,2.2,0.3,3.3c4.3,7.4,14.7,4.9,14.8,4.9c-1.3,0.9-3.4,1.6-6.3,1.9
			c-4.7,0.6-6.7,5.3-6.7,5.3C228.9,351.3,216.5,350.4,212.3,345.3z"/>
		<g>
			<path class="st15" d="M256.8,295.6c0,0,1.8,5.2-1,7.4c-2.9,2.3-5.5,4.4-5.5,4.4l0.1,6.7c0,1-0.3,1.9-0.8,2.7l-3.6,5.7
				c-0.7,1.1-1.1,2.4-1.1,3.7l0,2.7c0,0.8-0.6,1.5-1.4,1.6l-1,0.1c-0.8,0.1-1.6-0.5-1.7-1.4l-0.4-3.8c0,0-1.9-3-6.1,0.7l-3.8,1.6
				c-1.1,0.5-1.9,1.3-2.3,2.5c-1.1,3-3.3,8.8-5,9.8c-2.3,1.4-11.2-3.1-12.4-5.2c-1.2-2-4.1-15.6-6-22c-1.8-6.4-0.7-22.1,18.3-26.4
				C242,282.2,254.2,289.9,256.8,295.6z"/>
			<path class="st16" d="M210.9,334.9c-1.2-2-4.1-15.6-6-22c0,0,7.4,4.8,16.9,6.1c9.6,1.3,28.5-9.8,28.5-9.8l0,4.9
				c0,1-0.3,1.9-0.8,2.7l-3.6,5.7c-0.7,1.1-1.1,2.4-1.1,3.7l0,2.7c0,0.8-0.6,1.5-1.4,1.6l-1,0.1c-0.8,0.1-1.6-0.5-1.7-1.4l-0.4-3.8
				c0,0-1.9-3-6.1,0.7l-5.5,2.4c0,0-3.3,10.2-5.6,11.6C221,341.4,212.1,337,210.9,334.9z"/>
		</g>
		<path class="st17" d="M210.6,335.6c0,0-7.5,4.8-3.8,11.3c3.7,6.6,30.9,17.9,32.2,19.7c0,0,1-10-2.6-13.3c0,0-20.7-3.7-24-9
			C209.3,339,210.6,335.6,210.6,335.6z"/>
		<path class="st18" d="M210.6,335.6c0,0-1.3,3.4,1.9,8.7c2.4,4,14.9,7.1,20.8,8.4l0,0c0,0-2.2,1.3-5.9,7.8
			c-8.4-4.2-18.5-9.7-20.7-13.5C203.1,340.4,210.6,335.6,210.6,335.6z"/>
		<path class="st6" d="M205.4,356.8c0,0,12.1,6.8,18,9.9c5.9,3.1,12.4,7.2,12.4,7.2l2.3-2.4l2.8,6c0,0,9.3,5.5,13.7,10.2
			c4.4,4.7,7.8,10.9,8.3,12.4c0,0-11.8-15.4-21-19.9l-2.5-1.2l-1.4-4.8l-2.2,2.5C235.8,376.8,209.1,360.9,205.4,356.8z"/>
	</g>
	<g>
		
			<linearGradient id="SVGID_8_" gradientUnits="userSpaceOnUse" x1="1727.9281" y1="639.9681" x2="1791.6149" y2="639.9681" gradientTransform="matrix(-0.9974 -7.171009e-02 -7.171009e-02 0.9974 2069.5984 72.4431)">
			<stop  offset="0" style="stop-color:#5A64AD"/>
			<stop  offset="0.1833" style="stop-color:#5F7FB6"/>
			<stop  offset="0.3665" style="stop-color:#6399BF"/>
			<stop  offset="0.5432" style="stop-color:#67ADC6"/>
			<stop  offset="0.7114" style="stop-color:#6BBCCA"/>
			<stop  offset="0.8676" style="stop-color:#6DC5CC"/>
			<stop  offset="1" style="stop-color:#6DCACE"/>
		</linearGradient>
		<path class="st19" d="M237.6,575.3L237.6,575.3L237.6,575.3c0.4-1.2,1-2.3,1.7-3l51.3-47.9c1.3-1.2,2.7-0.4,3,2l7,53.8
			c0.3,2.5-0.5,5.7-1.9,7l-43.5,42.7l1.7,16.2l-13.4-6.2l0,0c-0.6-0.4-1-1.3-1.2-2.7l-5.2-57.9C237,578,237.2,576.6,237.6,575.3z"/>
		<path class="st8" d="M304.7,529.3l-12.2-5.2l-0.4-0.2c-0.4-0.1-0.9,0.1-1.5,0.5l-51.3,47.9c-0.7,0.7-1.3,1.7-1.7,3l1.9,0.9l0,0
			l10.7,5.2l45-43l0,0L304.7,529.3z"/>
		<path class="st6" d="M311.6,592.9l-53,52.6c-1.5,1.5-2.9,0.4-3.2-2.3l-5.7-58.3c-0.2-2.5,0.7-5.7,2.1-7l51.1-48.2
			c1.3-1.3,2.7-0.4,3,2l7.5,54.2C313.8,588.4,313,591.6,311.6,592.9z"/>
		<path class="st5" d="M248.7,640l-5.4-58.1c-0.2-2.5,0.7-5.6,2.2-7l51.2-48.1c0.4-0.4,0.8-0.6,1.2-0.6c-0.5-0.2-1.1-0.1-1.6,0.5
			L245,574.9c-1.4,1.3-2.4,4.5-2.2,7l5.4,58.1c0.2,1.9,0.9,3,1.8,3C249.3,642.6,248.9,641.6,248.7,640z"/>
		<g>
			<g>
				<path class="st5" d="M267.2,554.2l-2.7-1.4c-0.6-0.3-1.2-0.4-1.7-0.3l-0.2,0.1c-0.3,0.1-0.4,0.4-0.4,0.8l0.1,0.5l7.7,3.8
					l-0.1-0.5c0-0.4-0.3-0.9-0.6-1.3l-0.3-0.3C268.4,555.1,267.8,554.5,267.2,554.2z"/>
				<polygon class="st5" points="266.3,561.3 269.9,557.9 262.3,552.8 258.7,556.2 				"/>
				
					<linearGradient id="SVGID_9_" gradientUnits="userSpaceOnUse" x1="1763.6812" y1="614.4944" x2="1771.7528" y2="614.4944" gradientTransform="matrix(-0.9974 -7.171009e-02 -7.171009e-02 0.9974 2069.5984 72.4431)">
					<stop  offset="0" style="stop-color:#5A64AD"/>
					<stop  offset="0.1833" style="stop-color:#5F7FB6"/>
					<stop  offset="0.3665" style="stop-color:#6399BF"/>
					<stop  offset="0.5432" style="stop-color:#67ADC6"/>
					<stop  offset="0.7114" style="stop-color:#6BBCCA"/>
					<stop  offset="0.8676" style="stop-color:#6DC5CC"/>
					<stop  offset="1" style="stop-color:#6DCACE"/>
				</linearGradient>
				<path class="st20" d="M263.5,557.6l-2.7-1.4c-0.6-0.3-1.2-0.4-1.7-0.3l-0.2,0.1c-0.3,0.1-0.4,0.4-0.4,0.8l0.1,0.5l7.7,3.9
					l-0.1-0.5c0-0.4-0.3-0.9-0.6-1.3l-0.3-0.3C264.8,558.5,264.2,558,263.5,557.6z"/>
				<polygon class="st21" points="261.9,559.1 261.7,556.7 261.9,556.8 262.2,559.2 				"/>
				<polygon class="st21" points="261.7,556.7 265.4,553.4 265.6,553.5 261.9,556.8 				"/>
			</g>
			<g>
				<path class="st5" d="M283.4,539l-2.7-1.3c-0.6-0.3-1.2-0.4-1.7-0.3l-0.2,0.1c-0.3,0.1-0.4,0.4-0.3,0.8l0.1,0.5l7.6,3.8l-0.1-0.5
					c-0.1-0.4-0.3-0.9-0.6-1.3l-0.3-0.3C284.6,539.8,284,539.3,283.4,539z"/>
				<polygon class="st5" points="282.6,545.9 286.2,542.6 278.6,537.7 275,540.9 				"/>
				
					<linearGradient id="SVGID_10_" gradientUnits="userSpaceOnUse" x1="1748.4978" y1="598.0482" x2="1756.5251" y2="598.0482" gradientTransform="matrix(-0.9974 -7.171009e-02 -7.171009e-02 0.9974 2069.5984 72.4431)">
					<stop  offset="0" style="stop-color:#5A64AD"/>
					<stop  offset="0.1833" style="stop-color:#5F7FB6"/>
					<stop  offset="0.3665" style="stop-color:#6399BF"/>
					<stop  offset="0.5432" style="stop-color:#67ADC6"/>
					<stop  offset="0.7114" style="stop-color:#6BBCCA"/>
					<stop  offset="0.8676" style="stop-color:#6DC5CC"/>
					<stop  offset="1" style="stop-color:#6DCACE"/>
				</linearGradient>
				<path class="st22" d="M279.9,542.3l-2.7-1.3c-0.6-0.3-1.2-0.4-1.7-0.3l-0.2,0.1c-0.3,0.1-0.4,0.4-0.3,0.8l0.1,0.5l7.7,3.8
					l-0.1-0.5c-0.1-0.4-0.3-0.9-0.6-1.3l-0.3-0.3C281.1,543.2,280.5,542.7,279.9,542.3z"/>
				<polygon class="st21" points="278.3,543.8 278,541.4 278.2,541.5 278.5,543.9 				"/>
				<polygon class="st21" points="278,541.4 281.7,538.2 281.8,538.2 278.2,541.5 				"/>
			</g>
			<g>
				<path class="st8" d="M260.1,545.4l1.1,10l2.4-2.3l-1.1-9.7c-0.2-1.4,0.5-3.3,1.4-4.1l10.4-9.6c0.9-0.9,1.8-0.4,2,1l1.1,9.6
					l2.4-2.2l-1.2-9.8c-0.4-3.1-2.3-4-4.3-2.1l-11.1,10.2C261.2,538.2,259.8,542.3,260.1,545.4z"/>
				<path class="st8" d="M278,528.9l-4.3-0.3l-12.4,12.8l-0.5,7.7l0.3,6.4l2.8,1.4l0-8l0.1-5.5l2.6-4c0,0,4.7-4.2,4.7-4.3
					C271.4,534.9,278,528.9,278,528.9z"/>
				<polygon class="st8" points="280.3,541.6 277.5,540.2 276.6,533.2 279.3,533.3 280.1,533.4 				"/>
				<path class="st8" d="M280,526.7l-3-1.5c0,0,0.8,1.7,0.8,1.7c0,0,1,0.3,1,0.3L280,526.7z"/>
				<path class="st5" d="M262.9,546.8l1.1,10.1l2.4-2.3l-1.1-9.8c-0.2-1.4,0.5-3.3,1.4-4.1l10.4-9.7c0.9-0.9,1.8-0.4,2,1l1.2,9.6
					l2.4-2.2l-1.2-9.8c-0.4-3.1-2.3-4-4.4-2.1L266,537.7C264,539.6,262.6,543.7,262.9,546.8z"/>
			</g>
		</g>
	</g>
	<path class="st13" d="M274.4,521.3c0,0,1.9,9.7,1.4,12.1c-0.5,2.5-4.8,7.3-7.5,8.3c-2.6,1-1.6-2.5-2.2-4.5
		c-0.6-2.1-0.6-6.7-0.6-6.7L274.4,521.3z"/>
	<path class="st14" d="M265.5,530.5l8.8-9.2c0,0,0.4,2,0.8,4.4c0,0-3.2,7.4-9.3,10.4C265.5,533.8,265.5,530.5,265.5,530.5z"/>
	<path class="st12" d="M275,522c0,0-3,10.6-11,11.8l2.6-11.6c0,0,6.7-2.2,6.9-2.2C273.7,520,275,522,275,522z"/>
	
		<linearGradient id="SVGID_11_" gradientUnits="userSpaceOnUse" x1="1763.885" y1="526.4158" x2="1822.1323" y2="526.4158" gradientTransform="matrix(-0.9974 -7.171009e-02 -7.171009e-02 0.9974 2069.5984 72.4431)">
		<stop  offset="0" style="stop-color:#5A64AD"/>
		<stop  offset="0.1833" style="stop-color:#5F7FB6"/>
		<stop  offset="0.3665" style="stop-color:#6399BF"/>
		<stop  offset="0.5432" style="stop-color:#67ADC6"/>
		<stop  offset="0.7114" style="stop-color:#6BBCCA"/>
		<stop  offset="0.8676" style="stop-color:#6DC5CC"/>
		<stop  offset="1" style="stop-color:#6DCACE"/>
	</linearGradient>
	<path class="st23" d="M223.2,403.8c-7.2,22.7,11,57.8,13.7,68.2c2.7,10.6,31,59.7,31,59.7c0,0,0,0,0,0c0.2,0.3,0.3,0.5,0.3,0.5
		c-0.6,0.5-1.3,1-1.8,1.4c-0.7,0.3-0.4,0.3-1.3,0.5l0,0c-0.6,0.1-1.2-0.1-1.6-0.7c-6.6-9.1-25.2-47.2-25.7-48.8
		c-0.6-1.7-12.2-31.8-15.1-38.4C220.4,441,212.7,415.8,223.2,403.8z"/>
</g>
<g>
	<path class="st24" d="M519.1,574.5c-1.7,0-3.4-0.5-5.3-1.6l-156.4-90.6c-7.1-4.1-12.8-15.1-12.8-24.6l0.5-350.7
		c0-5.1,1.7-8.9,4.6-10.6c2.4-1.4,5.5-1.2,8.7,0.7l156.4,90.6c7.1,4.1,12.8,15.1,12.8,24.6L527.2,563c0,5.1-1.7,8.9-4.6,10.6
		C521.5,574.2,520.4,574.5,519.1,574.5z M353.3,96.4c-1.1,0-2.1,0.3-3,0.8c-2.6,1.5-4.2,5.1-4.2,9.8l-0.5,350.7
		c0,9.2,5.5,19.8,12.4,23.8l156.4,90.6c2.9,1.7,5.7,1.9,7.8,0.7c2.6-1.5,4.2-5.1,4.2-9.8l0.5-350.7c0-9.2-5.5-19.8-12.4-23.8
		L358.1,97.9C356.4,96.9,354.8,96.4,353.3,96.4z"/>
	<g>
		<g>
			
				<linearGradient id="SVGID_12_" gradientUnits="userSpaceOnUse" x1="346.5995" y1="3.3939" x2="858.3162" y2="3.3939" gradientTransform="matrix(0.4986 0.8669 0.8669 -0.4986 119.6986 -177.3752)">
				<stop  offset="0" style="stop-color:#BEBDDF"/>
				<stop  offset="3.750461e-02" style="stop-color:#B6B5DB"/>
				<stop  offset="0.2519" style="stop-color:#9393C8"/>
				<stop  offset="0.4605" style="stop-color:#7A7DBC"/>
				<stop  offset="0.6591" style="stop-color:#686EB4"/>
				<stop  offset="0.8436" style="stop-color:#5E66AF"/>
				<stop  offset="1" style="stop-color:#5A64AD"/>
			</linearGradient>
			<path class="st25" d="M496.6,596l-8.1-22.2l-143.7-83.3c-7.2-4.2-13-15.4-13-25l0.5-317.8l-14.4-39.3l12.7-7.3l0,0
				c2.3-1.3,5.3-1.2,8.6,0.7l162.1,94c7.2,4.2,13,15.4,13,25l-0.6,357.4c0,5.2-1.7,8.8-4.4,10.5l0,0L496.6,596z"/>
			<path class="st6" d="M488.5,203.2l-162.1-94c-7.2-4.2-13.1,0.2-13.1,9.9l-0.6,357.4c0,9.6,5.8,20.8,13,25l162.1,94
				c7.2,4.2,13.1-0.2,13.1-9.9l0.6-357.4C501.5,218.5,495.7,207.4,488.5,203.2z"/>
			<path class="st26" d="M501,585.6l0.6-357.4c0-9.6-5.8-20.8-13-25l-162.1-94c-2.9-1.7-5.6-1.9-7.7-1.1c2.4-1.9,5.7-2,9.4,0.1
				l162.1,94c7.2,4.2,13,15.4,13,25l-0.6,357.4c0,5.8-2.1,9.6-5.4,10.9C499.5,593.7,501,590.3,501,585.6z"/>
			<path class="st27" d="M485.5,205.3l-156.4-90.6c-7-4-12.6,0.2-12.7,9.5L316,475c0,9.3,5.6,20.1,12.6,24.2l156.4,90.6
				c7,4,12.6-0.2,12.7-9.5l0.5-350.7C498.1,220.1,492.5,209.3,485.5,205.3z"/>
		</g>
		<g>
			
				<linearGradient id="SVGID_13_" gradientUnits="userSpaceOnUse" x1="1349.7737" y1="-1094.5455" x2="1206.9313" y2="-1284.1038" gradientTransform="matrix(0.4986 0.8668 0.8668 -0.4986 797.0867 -1346.9099)">
				<stop  offset="0" style="stop-color:#6DCACE"/>
				<stop  offset="4.207826e-02" style="stop-color:#62B0BB"/>
				<stop  offset="0.1485" style="stop-color:#4E859B"/>
				<stop  offset="0.2591" style="stop-color:#3E6382"/>
				<stop  offset="0.3715" style="stop-color:#314B6F"/>
				<stop  offset="0.4861" style="stop-color:#283861"/>
				<stop  offset="0.6036" style="stop-color:#212857"/>
				<stop  offset="0.7253" style="stop-color:#1D1D50"/>
				<stop  offset="0.8536" style="stop-color:#1A154C"/>
				<stop  offset="1" style="stop-color:#1A134B"/>
			</linearGradient>
			<path class="st28" d="M486.5,593.8c-1.7,0-3.5-0.5-5.3-1.6l-156.4-90.6c-7.1-4.1-12.9-15.2-12.9-24.6l0.5-350.7
				c0-5.1,1.7-9,4.6-10.7c2.5-1.4,5.6-1.2,8.8,0.7l156.4,90.6c7.1,4.1,12.9,15.2,12.9,24.6l-0.5,350.7c0,5.1-1.7,9-4.6,10.7
				C488.9,593.5,487.7,593.8,486.5,593.8z M320.6,115.7c-1.1,0-2.1,0.3-3,0.8c-2.6,1.5-4.1,5.1-4.1,9.8L313,477
				c0,9.1,5.5,19.8,12.4,23.7l156.4,90.6c2.9,1.7,5.6,1.9,7.8,0.7c2.6-1.5,4.1-5.1,4.1-9.8l0.5-350.7c0-9.1-5.5-19.8-12.4-23.7
				l-156.4-90.6C323.7,116.2,322.1,115.7,320.6,115.7z"/>
		</g>
		<g class="st29">
			<defs>
				
					<ellipse id="SVGID_14_" transform="matrix(7.093048e-02 -0.9975 0.9975 7.093048e-02 74.0595 696.0832)" class="st29" cx="410.7" cy="308.3" rx="99.8" ry="57.6"/>
			</defs>
			<clipPath id="SVGID_15_">
				<use xlink:href="#SVGID_14_"  style="overflow:visible;"/>
			</clipPath>
			<g class="st30">
				<g>
					<path class="st5" d="M320.4,551c0,0-12.2,7.8-16.3,12.4c-4.1,4.6-12.3,14-8.9,18.5c3.3,4.5,14.7,7,26.9-4.2
						c12.2-11.2,8.7-11.9,19.1-17.4c10.4-5.5,13.2-11.6,12-15c-1.2-3.5-6.4-9.6-9.2-8.3C341.2,538.3,320.4,551,320.4,551z"/>
					<path class="st5" d="M379.6,583.9c0,0-4.4,9.6-6.6,12.8c-2.3,3.2-13.2,21.6-7.5,25.8c5.7,4.2,16.5,3.1,25.1-6.2
						s10.5-20.5,12.6-24.2c2.1-3.7,7.4-13.6,4.9-19.3c-2.5-5.7-3-6.7-3-6.7L379.6,583.9z"/>
					<path class="st6" d="M335.6,447c0,0-36.2,35.6-42.2,53.5c0,0-2.5,9.7,4.5,17.3c7,7.6,21.8,32.4,21.8,32.4s11.1,13.4,25.4,2.7
						c0,0,6.5-10.3,2.5-17.2c-4-6.9-14.5-28.8-14.5-28.8s23.2-15.9,34.7-19.9s17.6-7.1,17.6-7.1s-2.1,10.8-10.5,21.3
						c-8.4,10.5-22.4,27.4-17.8,39.2c4.6,11.8,7.3,15.4,11.7,22.2c4.4,6.8,8.5,20.9,12.2,22.4c3.7,1.5,21,3.2,23.8-8.1
						c2.8-11.3-5.8-33.1-9.8-40.6c0,0,46.8-53.9,51.3-59.8C450.8,470.7,350.1,437.8,335.6,447z"/>
					<path class="st5" d="M347.5,535.7c-4-6.9-14.5-28.8-14.5-28.8s23.2-15.9,34.7-19.9s17.6-7.1,17.6-7.1c2.2-3,9.3-14.6,12.5-23.8
						c-26.4-7.8-55-13.6-62.2-9.1c2.5,6.3,16,6.3,16,6.3s5,12.2,8.3,13.8c3.3,1.6,11.3-0.1,11.3-0.1s-1.3,2-7,6.1
						c-5.7,4.1-41.3,33.2-41.3,33.2s2,1.2,11.5,18.3c9.4,17.1,10.7,28.4,10.7,28.4S351.5,542.6,347.5,535.7z"/>
					<path class="st5" d="M427.6,466c-20.9-2-45.2-2.2-39.8,8.7c9.3,18.6,28,19.5,28,19.5c-0.1,6.8-28.9,39.8-28.9,39.8s0,0,6.7,13
						c6.7,13,5.8,36.7,5.8,36.7c2.6-1.4,4.6-3.6,5.5-6.8c2.8-11.3-5.8-33.1-9.8-40.6c0,0,46.8-53.9,51.3-59.8
						C447.7,474.8,439.8,470.7,427.6,466z"/>
					<path class="st8" d="M299.2,351.8l5.6-4.3c0,0,30-16.6,40-22c5.4-2.9,11-8.1,15-12.3c3.9-4.1,9.3-6.3,15-6.3l52.5-0.2
						c0,0,6.1,9.8,8.2,11.7c1.5,1.4,15.7,13.4,26,23.2c5.6,5.5,9.7,12.3,11.9,19.8c5.8,20.6,5.7,62.2,6.5,91.9c0,0-3.6,1.4-12.6,3.3
						c-8.9,1.9-7.8,0.7-7.8,0.7s-13.4,30.1-31.6,33c-18.2,2.9-42.7-5.7-47-34.2c0,0-35.4-5.4-45-9.3c-0.9-0.4-1.2-1.5-0.6-2.2
						c4.3-5.7,20.3-27.7,21.9-42.1c1.8-16.6,1.3-40.7,0-47.3c0,0-26.7,10-35.3,11.8c0,0-32.6,35.7-46.2,45.4c0,0,4.7-7.3-4.7-12.3
						L299.2,351.8z"/>
					<path class="st6" d="M467.1,456.7c1.4-0.3,2.6-0.6,3.7-0.8l-1.9-3.7l-49.3-5.3l-28.8,1.4l-9.9,9.4c0.6,3.1,1.3,5.9,2.3,8.5
						c0.1,0,12.2,1.8,17.9,0.6c5.7-1.2,49.5,5.3,49.6,5.3c5-7.1,8.1-13.8,8.5-14.6C459.2,457.8,459.7,458.3,467.1,456.7z"/>
					<path class="st13" d="M400.6,439.4c-0.1-0.2-0.2-0.3-0.4-0.3c-2.4-0.1-17.8-0.5-23.6-2.6c-6.3-2.2-13-1.8-13.4-1.4
						c-0.3,0.4-10.9,4.8-11.5,6.6c-0.6,1.6-1.6,7.2-0.2,9.3c1.4,2.1,2,3.4,2,3.4l1.1,0.1c0,0,1.4,2.8,2.2,3.8
						c0.4,0.4,0.6,0.9,0.9,1.4c0.7,1.4,1.8,3.8,2.3,3.9c0.7,0.1,4,0.7,4.8,0.5c0.7-0.2,1.3-2.2,1-3.2c-0.1-0.2,0-0.5,0.3-0.5
						c1.5-0.2,5.6-0.8,11.2-0.2c6.9,0.6,16.5-3.8,17.4-4.2c0,0,0.1,0,0.1,0l9.7-0.9c0.3,0,0.5-0.3,0.4-0.6L400.6,439.4z"/>
					<path class="st17" d="M389.1,337.6c0,0-8.3,30.3,0.4,61.5c0,0,31.7-59,35.2-68.6c3.4-9.6,4.7-16.4,1.5-19.8
						c-3.2-3.4-31.8,14.3-31.8,14.3L389.1,337.6z"/>
					<path class="st18" d="M397.2,385.1c0,0,6.1-18.4,5-24.4c-1-6-2.5-10.2-2.5-10.2l5.4-5l2.4,5c0,0,12-8.8,12.8-10.4
						c0,0-9.6,6.6-12.7,7.6c0,0-1.4-2.4-3.3-3.2c-1.9-0.8-6.6,5.6-6.6,5.6l-0.9,11.2l-4.8,26.1l1.6,3.9L397.2,385.1z"/>
					<path class="st6" d="M392,337.9c0,0-1.2,11.9-0.2,12.8c1,0.8,4.7,0.9,6.4-0.1c1.7-1,6.1-6.1,6.1-6.1S399,335,392,337.9z"/>
					<path class="st6" d="M398.4,348.5c0,0,3.2,8.3,0.1,19.7c-3.1,11.4-4.3,22-4.3,22l-4.7,8.8c0,0-5.8-17.3-3.9-34.6
						c0.9-7.8,6.8-14.7,6.8-14.7L398.4,348.5z"/>
					<path class="st13" d="M374.4,289.2c0,0-1.5,7.4-0.9,8.8c0.5,1.4,2.4,2.3,1.9,5.2c-0.5,2.9,1.2,11.5,2,14.3c0,0-0.6,3.1,0.2,4
						c0.9,0.9,2,0.9,2.8,2.4c0.8,1.4,1.1,8.9,4.1,11.4c3,2.5,6.9,3,9,2.5c2-0.5,4.1-2.1,4.1-2.1l4.5,1.9c0,0,23.5-6.6,22.8-23.2
						l0-1.7c0,0,1.7-2.3,2.2-3.9c0.5-1.5,4.4-8.4,2.4-11.4c0,0,9.2-36-18.9-38.2C382.4,257,378.2,276.7,374.4,289.2z"/>
					<path class="st14" d="M424.9,314.4l0-0.2c-1.2-0.7-2.3-1.1-3.2-1c-3.2,0.6-2.5-6.1-2.5-6.1s-0.6,1.2-2.3,9.7
						c-1.7,8.5-19.4,18.8-19.4,18.8l4.5,1.9C402.1,337.5,425.6,330.9,424.9,314.4z"/>
					<path class="st15" d="M374.6,273.6c-2.8,5.8-4.1,12.8,1.7,17.6c0,0,4.8,1.3,14-2.9c6.2-2.9,12.4-1.6,15.8-0.4
						c1.6,0.5,2.6,2,2.5,3.7l-0.1,5.1c0,1.3,0.7,2.5,2,3.1l4.3,1.8l0.8,5c0.2,1.5,1.8,2.4,3.2,1.9l1.1-0.4c0,0,0.7-11.1,9.8-10.5
						c0,0,7.4-16-0.1-30.7c-7.6-14.7-28.4-13.6-32.8-12c-5.8,2.2-5,1.9-8.4,3.9C382.4,262.3,377.5,267.4,374.6,273.6z"/>
					<path class="st6" d="M449.2,386.6c0,0-4.3,31.4-6.1,40.3l-13.8,7.2l24.4-1.5L449.2,386.6z"/>
					<path class="st16" d="M429.5,297.4c0,0,2.5-5.4,3.1-12.8c-11.4,9-24.1,6.9-24.1,6.9l-0.1,5.1c0,1.3,0.7,2.5,2,3.1l4.3,1.8
						l0.8,5c0.2,1.5,1.8,2.4,3.2,1.9l1.1-0.4C419.7,307.9,420.4,296.8,429.5,297.4z"/>
					<path class="st6" d="M435.5,325c0,0-7.3,25-8.8,29.8l-5.9-0.6l1,7.9l-31.6,41.6l35.1-40.2l-1.4-7.1l5.3,0.6L435.5,325z"/>
					<path class="st31" d="M404.4,460.9c0,0,74-2.3,75.9-3.6c1.9-1.3,2.3-20.4,2.1-31.4c-0.1-7.7,0-38-6.6-59.3
						c5.2,18,2.3,81.6,0,84.9c-2.4,3.2-72.8,5-72.8,5l0,0C403.8,459,404.4,460.9,404.4,460.9z"/>
					<path class="st13" d="M259,401.5c0,0-0.3,1.9-3.5,3.7c-3.2,1.8-11.5,5.9-12.8,7c-1.3,1.2-7.3,6.4-7.5,7.1s-2,6.6-2,6.9
						c0,0.4,0.6,3.1,0.6,3.1L232,438c0,0-2.3,3.4,0.2,4.3c2.5,0.9,4-1.7,4-2.1c0,0,3.8-1.8,6.6-4c2.8-2.2,14.1-11.2,16-10.6
						c1.9,0.6,0.1,3.8-0.8,4.4c-0.9,0.6-6.9,6.4-4.4,10.4c2.5,4,4.1-2.3,5.8-3.6c1.6-1.3,5.2-6.3,7.4-7c2.2-0.6,6.2-8.8,6.7-12.4
						c0.5-3.6,3.1-6,4.1-7.2c0.9-1.2-2-10.2-2-10.2l-11.1-3.5l-3.9,2.5L259,401.5z"/>
				</g>
			</g>
		</g>
		<g class="st32">
			<defs>
				<path id="SVGID_16_" class="st32" d="M482,207.3l-156.4-90.6c-7-4-12.6,0.2-12.7,9.5L312.5,477c0,9.3,5.6,20.1,12.6,24.2
					l156.4,90.6c7,4,12.6-0.2,12.7-9.5l0.5-350.7C494.6,222.1,489,211.3,482,207.3z"/>
			</defs>
			
				<radialGradient id="SVGID_17_" cx="443.4764" cy="247.5095" r="803.0253" gradientTransform="matrix(1 1.513878e-03 -1.513878e-03 1 0.5922 -0.4022)" gradientUnits="userSpaceOnUse">
				<stop  offset="0" style="stop-color:#6DCACE"/>
				<stop  offset="0.1025" style="stop-color:#4CA8B7"/>
				<stop  offset="0.1886" style="stop-color:#2F93A9"/>
				<stop  offset="0.2073" style="stop-color:#2F8BA2"/>
				<stop  offset="0.3086" style="stop-color:#2B6888"/>
				<stop  offset="0.4134" style="stop-color:#264F73"/>
				<stop  offset="0.5203" style="stop-color:#223A64"/>
				<stop  offset="0.63" style="stop-color:#1E2A58"/>
				<stop  offset="0.7435" style="stop-color:#1C1E51"/>
				<stop  offset="0.8633" style="stop-color:#1A154C"/>
				<stop  offset="1" style="stop-color:#1A134B"/>
			</radialGradient>
			<use xlink:href="#SVGID_16_"  style="overflow:visible;opacity:0.5;fill:url(#SVGID_17_);"/>
			<clipPath id="SVGID_18_">
				<use xlink:href="#SVGID_16_"  style="overflow:visible;opacity:0.5;"/>
			</clipPath>
		</g>
		<g class="st32">
			<defs>
				<path id="SVGID_19_" class="st32" d="M482,207.3l-156.4-90.6c-7-4-12.6,0.2-12.7,9.5L312.5,477c0,9.3,5.6,20.1,12.6,24.2
					l156.4,90.6c7,4,12.6-0.2,12.7-9.5l0.5-350.7C494.6,222.1,489,211.3,482,207.3z"/>
			</defs>
			<clipPath id="SVGID_20_">
				<use xlink:href="#SVGID_19_"  style="overflow:visible;"/>
			</clipPath>
		</g>
		<g>
			<path class="st33" d="M479.5,232.4c0-2.8-1.9-6.1-4.3-7.5c-2.4-1.4-4.3-0.3-4.3,2.5c0,2.8,1.9,6.1,4.3,7.5
				C477.6,236.3,479.5,235.1,479.5,232.4z"/>
			<path class="st24" d="M474.3,235.4c0-2.8-1.9-6.1-4.3-7.5c-2.4-1.4-4.3-0.3-4.3,2.5c0,2.8,1.9,6.1,4.3,7.5
				C472.3,239.3,474.3,238.2,474.3,235.4z"/>
			<path class="st33" d="M442.2,215.8l16.9,9.8c2.1,1.2,3.7-0.1,3.8-2.8l0,0c0-2.8-1.7-6-3.7-7.2l-16.9-9.8
				c-2.1-1.2-3.7,0.1-3.8,2.8l0,0C438.5,211.4,440.1,214.6,442.2,215.8z"/>
			<path class="st24" d="M436.9,218.8l16.9,9.8c2.1,1.2,3.7-0.1,3.8-2.8l0,0c0-2.8-1.7-6-3.7-7.2l-16.9-9.8
				c-2.1-1.2-3.7,0.1-3.8,2.8v0C433.2,214.4,434.9,217.6,436.9,218.8z"/>
			<path class="st33" d="M340,156.8l16.9,9.8c2.1,1.2,3.7-0.1,3.8-2.8v0c0-2.8-1.7-6-3.7-7.2l-16.9-9.8c-2.1-1.2-3.7,0.1-3.8,2.8
				l0,0C336.2,152.4,337.9,155.6,340,156.8z"/>
			<path class="st24" d="M334.7,159.8l16.9,9.8c2.1,1.2,3.7-0.1,3.8-2.8l0,0c0-2.8-1.7-6-3.7-7.2l-16.9-9.8
				c-2.1-1.2-3.7,0.1-3.8,2.8l0,0C331,155.4,332.6,158.7,334.7,159.8z"/>
		</g>
		<path class="st33" d="M406.2,185.7c0,3.2-2.2,4.5-5,2.9c-2.8-1.6-5-5.5-5-8.7c0-3.2,2.2-4.5,5-2.9
			C404,178.7,406.3,182.5,406.2,185.7z"/>
		<path class="st24" d="M403.5,184.1c0,1.4-1,2-2.2,1.3c-1.2-0.7-2.2-2.4-2.2-3.9c0-1.4,1-2,2.2-1.3
			C402.5,181,403.5,182.7,403.5,184.1z"/>
	</g>
	<g>
		<polygon class="st24" points="423.4,358.3 413.3,352.4 413.9,351.4 422.3,356.3 422.3,346.6 423.5,346.6 		"/>
		<polygon class="st24" points="423.5,301.7 422.4,301.7 422.4,291.3 413.4,286.1 414,285.1 423.5,290.6 		"/>
		<polygon class="st24" points="366.1,268.4 365,268.4 365,256.7 375.1,262.6 374.6,263.6 366.1,258.7 		"/>
		<polygon class="st24" points="374.5,329.9 364.9,324.3 364.9,313.3 366.1,313.3 366,323.7 375,328.9 		"/>
	</g>
	<g>
		<path class="st33" d="M460.9,490l-113.8-66.1c-7.7-4.5-14.1,0.2-14.1,10.6v0c0,10.3,6.2,22.4,14,26.9l113.8,66.1
			c7.7,4.5,14.1-0.2,14.1-10.6l0,0C474.9,506.6,468.7,494.5,460.9,490z"/>
		<path class="st34" d="M453.9,494.1L340.1,428c-7.7-4.5-14.1,0.2-14.1,10.6l0,0c0,10.3,6.2,22.4,14,26.9l113.8,66.1
			c7.7,4.5,14.1-0.2,14.1-10.6l0,0C467.9,510.6,461.6,498.6,453.9,494.1z"/>
		<path class="st24" d="M459.4,533.6c-1.8,0-3.8-0.6-5.8-1.7l-113.8-66.1c-7.8-4.6-14.2-16.8-14.2-27.2c0-5.6,1.9-9.8,5.1-11.7
			c2.7-1.5,6.1-1.3,9.6,0.8L454,493.8c7.8,4.6,14.2,16.8,14.2,27.2c0,5.6-1.9,9.8-5.1,11.7C462,533.3,460.7,533.6,459.4,533.6z
			 M334.5,426.7c-1.2,0-2.4,0.3-3.4,0.9c-3,1.7-4.7,5.7-4.7,11c0,10.2,6.2,22.1,13.8,26.6l113.8,66.1c3.3,1.9,6.4,2.2,8.8,0.8
			c3-1.7,4.7-5.7,4.7-11c0-10.2-6.2-22.1-13.8-26.6l-113.8-66.1C338,427.2,336.2,426.7,334.5,426.7z"/>
		<g>
			<path class="st34" d="M458.8,515.1c0-3.1-2.1-6.8-4.8-8.4c-2.7-1.5-4.8-0.3-4.8,2.8c0,3.1,2.1,6.8,4.8,8.4
				C456.7,519.4,458.8,518.2,458.8,515.1z"/>
			<path class="st24" d="M456.2,518.8c-0.7,0-1.5-0.2-2.3-0.7c-2.7-1.6-4.9-5.4-4.9-8.6c0-1.6,0.6-2.8,1.5-3.3
				c1-0.6,2.3-0.4,3.7,0.3c2.7,1.6,4.9,5.4,4.9,8.6l0,0c0,1.6-0.6,2.8-1.5,3.3C457.1,518.7,456.7,518.8,456.2,518.8z M451.9,506.4
				c-0.4,0-0.8,0.1-1.1,0.3c-0.8,0.5-1.3,1.5-1.3,2.9c0,3,2.1,6.6,4.7,8.1c1.2,0.7,2.3,0.8,3.1,0.3c0.8-0.5,1.3-1.5,1.3-2.9
				c0-3-2.1-6.6-4.7-8.1C453.2,506.6,452.5,506.4,451.9,506.4z"/>
			<path class="st34" d="M442.8,505.9c0-3.1-2.1-6.8-4.8-8.4c-2.7-1.5-4.8-0.3-4.8,2.8c0,3.1,2.1,6.8,4.8,8.4
				C440.6,510.2,442.8,509,442.8,505.9z"/>
			<path class="st24" d="M437.4,511.1c-0.7,0-1.5-0.2-2.3-0.7c-2.7-1.6-4.9-5.4-4.9-8.6c0-1.6,0.6-2.8,1.5-3.3
				c1-0.6,2.3-0.4,3.7,0.3c2.7,1.6,4.9,5.4,4.9,8.6c0,1.6-0.6,2.8-1.5,3.3C438.4,511,437.9,511.1,437.4,511.1z M433.2,498.6
				c-0.4,0-0.8,0.1-1.1,0.3c-0.8,0.5-1.3,1.5-1.3,2.9c0,3,2.1,6.6,4.7,8.1c1.2,0.7,2.3,0.8,3.1,0.3c0.8-0.5,1.3-1.5,1.3-2.9
				c0-3-2.1-6.6-4.7-8.1C434.5,498.9,433.8,498.6,433.2,498.6z"/>
			<path class="st24" d="M387.5,491.7c-0.7,0-1.5-0.2-2.3-0.7c-2.7-1.6-4.9-5.4-4.9-8.6c0-1.6,0.6-2.8,1.5-3.3
				c1-0.6,2.3-0.4,3.7,0.3c2.7,1.6,4.9,5.4,4.9,8.6l-0.3,0l0.3,0c0,1.6-0.6,2.8-1.5,3.3C388.4,491.6,388,491.7,387.5,491.7z
				 M383.2,479.3c-0.4,0-0.8,0.1-1.1,0.3c-0.8,0.5-1.3,1.5-1.3,2.9c0,3,2.1,6.6,4.7,8.1c1.2,0.7,2.3,0.8,3.1,0.3
				c0.8-0.5,1.3-1.5,1.3-2.9c0-3-2.1-6.6-4.7-8.1C384.5,479.5,383.8,479.3,383.2,479.3z"/>
			<path class="st34" d="M401.9,481.3c0-3.1-2.1-6.8-4.8-8.4c-2.7-1.5-4.8-0.3-4.8,2.8c0,3.1,2.1,6.8,4.8,8.4
				C399.7,485.7,401.9,484.4,401.9,481.3z"/>
			<path class="st24" d="M364.6,486.4c-0.7,0-1.5-0.2-2.3-0.7c-2.7-1.6-4.9-5.4-4.9-8.6c0-1.6,0.6-2.8,1.5-3.3
				c1-0.6,2.3-0.4,3.7,0.3c2.7,1.6,4.9,5.4,4.9,8.6l-0.3,0l0.3,0c0,1.6-0.6,2.8-1.5,3.3C365.5,486.3,365.1,486.4,364.6,486.4z
				 M360.3,474c-0.4,0-0.8,0.1-1.1,0.3c-0.8,0.5-1.3,1.5-1.3,2.9c0,3,2.1,6.6,4.7,8.1c1.2,0.7,2.3,0.8,3.1,0.3
				c0.8-0.5,1.3-1.5,1.3-2.9c0-3-2.1-6.6-4.7-8.1C361.6,474.2,360.9,474,360.3,474z"/>
			<path class="st34" d="M386.5,471.7c0-3.1-2.1-6.8-4.8-8.4c-2.7-1.5-4.8-0.3-4.8,2.8c0,3.1,2.1,6.8,4.8,8.4
				C384.3,476,386.5,474.8,386.5,471.7z"/>
			<path class="st24" d="M338.4,483c-0.7,0-1.5-0.2-2.3-0.7c-2.7-1.6-4.9-5.4-4.9-8.6c0-1.6,0.6-2.8,1.5-3.3c1-0.6,2.3-0.4,3.7,0.3
				c2.7,1.6,4.9,5.4,4.9,8.6c0,1.6-0.6,2.8-1.5,3.3C339.4,482.9,338.9,483,338.4,483z M334.2,470.5c-0.4,0-0.8,0.1-1.1,0.3
				c-0.8,0.5-1.3,1.5-1.3,2.9c0,3,2.1,6.6,4.7,8.1c1.2,0.7,2.3,0.8,3.2,0.3c0.8-0.5,1.3-1.5,1.3-2.9c0-3-2.1-6.6-4.7-8.1
				C335.5,470.8,334.8,470.5,334.2,470.5z"/>
			<path class="st34" d="M370.7,462c0-3.1-2.1-6.8-4.8-8.4c-2.7-1.5-4.8-0.3-4.8,2.8c0,3.1,2.1,6.8,4.8,8.4
				C368.5,466.3,370.7,465.1,370.7,462z"/>
			<path class="st34" d="M410.4,492.1l13.9,8.1c2.3,1.3,4.2-0.1,4.2-3.1l0,0c0-3.1-1.8-6.6-4.1-8l-13.9-8.1
				c-2.3-1.3-4.2,0.1-4.2,3.1l0,0C406.3,487.2,408.1,490.8,410.4,492.1z"/>
			<path class="st24" d="M420.4,504.2c-0.6,0-1.2-0.2-1.8-0.5l-13.9-8.1c-2.4-1.4-4.3-5.1-4.3-8.2c0-1.7,0.6-3,1.6-3.6
				c0.8-0.5,1.9-0.4,3,0.2l13.9,8.1c2.4,1.4,4.3,5.1,4.3,8.2c0,1.7-0.6,3-1.6,3.6C421.2,504.1,420.8,504.2,420.4,504.2z
				 M404.9,495.1l13.9,8.1c0.9,0.5,1.8,0.6,2.5,0.2c0.8-0.5,1.3-1.6,1.3-3.1c0-3-1.8-6.5-4-7.8l-13.9-8.1c-0.9-0.5-1.8-0.6-2.5-0.2
				c-0.8,0.5-1.3,1.6-1.3,3.1C400.9,490.4,402.7,493.8,404.9,495.1L404.9,495.1z"/>
		</g>
	</g>
</g>
<polygon class="st1" points="774.8,511.5 774.4,787.8 295.9,787 "/>
</svg>
